<?xml version="1.0" standalone="no"?>
<!DOCTYPE svg PUBLIC "-//W3C//DTD SVG 20010904//EN"
 "http://www.w3.org/TR/2001/REC-SVG-20010904/DTD/svg10.dtd">
<svg version="1.0" xmlns="http://www.w3.org/2000/svg"
 width="400.000000pt" height="400.000000pt" viewBox="0 0 400.000000 400.000000"
 preserveAspectRatio="xMidYMid meet">
<metadata>
Created by potrace 1.14, written by Peter Selinger 2001-2017
</metadata>
<g transform="translate(0.000000,400.000000) scale(0.100000,-0.100000)"
fill="#000000" stroke="none">
<path d="M2487 3645 c-164 -31 -303 -95 -434 -200 -163 -130 -284 -308 -333
-487 -30 -113 -121 -560 -115 -566 3 -3 184 31 403 76 218 45 412 82 430 82
29 0 32 2 22 19 -5 11 -15 42 -21 70 -21 102 41 220 140 264 47 21 139 25 181
9 120 -47 185 -178 150 -303 -14 -48 -84 -127 -135 -150 -49 -23 -133 -24
-182 -4 -45 19 -43 20 -43 -12 0 -16 -39 -211 -87 -434 l-86 -406 -411 -87
c-226 -47 -421 -86 -433 -86 -27 0 -27 2 -8 -43 18 -43 19 -106 4 -162 -15
-55 -102 -140 -161 -155 -102 -28 -209 11 -271 98 -26 36 -32 55 -35 112 -2
38 1 85 8 105 17 51 76 114 129 138 53 23 142 25 194 4 l37 -16 1 37 c0 20 37
215 83 432 45 217 79 396 75 398 -9 4 -474 -93 -568 -119 -303 -82 -584 -371
-668 -687 -23 -84 -26 -118 -27 -252 0 -129 3 -170 22 -244 70 -279 265 -518
527 -646 152 -75 245 -95 440 -94 192 1 268 18 420 93 235 117 424 328 502
561 17 52 55 208 83 345 29 138 57 255 64 261 6 6 139 38 296 71 186 40 312
72 361 92 280 117 512 388 586 687 26 108 24 353 -5 468 -24 97 -81 227 -133
303 -136 200 -358 359 -579 413 -113 28 -316 35 -423 15z"/>
</g>
</svg>
